<svg width="976" height="719" viewBox="0 0 976 719" fill="none" xmlns="http://www.w3.org/2000/svg">
<path d="M803.173 0H186.887C158.523 0 135.53 22.9934 135.53 51.3571V667.643C135.53 696.007 158.523 719 186.887 719H803.173C831.536 719 854.53 696.007 854.53 667.643V51.3571C854.53 22.9934 831.536 0 803.173 0Z" fill="#EAECF0"/>
<g filter="url(#filter0_d_195_238)">
<path d="M721 51.3582H27.6786C13.4967 51.3582 2 62.8548 2 77.0367V205.43C2 219.611 13.4967 231.108 27.6786 231.108H721C735.182 231.108 746.678 219.611 746.678 205.43V77.0367C746.678 62.8548 735.182 51.3582 721 51.3582Z" fill="white"/>
</g>
<path d="M356.36 92.4424H222.831C214.322 92.4424 207.424 99.3404 207.424 107.85C207.424 116.359 214.322 123.257 222.831 123.257H356.36C364.869 123.257 371.767 116.359 371.767 107.85C371.767 99.3404 364.869 92.4424 356.36 92.4424Z" fill="#D0D5DD"/>
<path d="M448.803 159.206H222.831C214.322 159.206 207.424 166.104 207.424 174.613C207.424 183.122 214.322 190.02 222.831 190.02H448.803C457.312 190.02 464.21 183.122 464.21 174.613C464.21 166.104 457.312 159.206 448.803 159.206Z" fill="#EAECF0"/>
<path d="M140.665 66.7698H43.0863C28.9044 66.7698 17.4077 78.2665 17.4077 92.4483V190.027C17.4077 204.209 28.9044 215.705 43.0863 215.705H140.665C154.847 215.705 166.343 204.209 166.343 190.027V92.4483C166.343 78.2665 154.847 66.7698 140.665 66.7698Z" fill="#98A2B3"/>
<path d="M80.1727 158.085H90.4441L90.5571 154.13C90.5571 148.933 93.8337 147.577 98.4661 146.108C103.113 144.786 107.203 141.987 110.118 138.135C113.033 134.282 114.614 129.585 114.623 124.754C114.725 121.804 114.213 118.866 113.12 116.124C112.028 113.382 110.378 110.897 108.275 108.826C106.172 106.755 103.662 105.143 100.904 104.092C98.1458 103.042 95.1997 102.575 92.2519 102.722C89.1366 102.654 86.04 103.219 83.1499 104.384C80.2598 105.549 77.6364 107.289 75.4388 109.498C73.2412 111.707 71.5153 114.339 70.3657 117.235C69.216 120.132 68.6666 123.231 68.7508 126.346H79.3715C79.3312 124.626 79.6345 122.916 80.2638 121.314C80.8931 119.713 81.8356 118.254 83.0362 117.022C84.2368 115.79 85.6712 114.81 87.2554 114.139C88.8397 113.468 90.5418 113.121 92.2621 113.116C93.8135 113.026 95.3661 113.272 96.8143 113.835C98.2625 114.399 99.5725 115.267 100.655 116.382C101.738 117.497 102.568 118.832 103.089 120.296C103.609 121.76 103.809 123.319 103.674 124.867C103.605 127.373 102.734 129.79 101.188 131.763C99.6421 133.736 97.5033 135.161 95.0868 135.827L91.3582 137.306C87.7078 138.185 84.5208 140.403 82.4284 143.521C80.3359 146.639 79.4905 150.429 80.0597 154.14L80.1727 158.085ZM85.257 182.5C86.2628 182.536 87.2656 182.369 88.206 182.011C89.1464 181.652 90.0054 181.109 90.7322 180.413C91.459 179.717 92.0389 178.882 92.4375 177.958C92.8361 177.034 93.0454 176.039 93.053 175.033C93.0441 174.027 92.8338 173.033 92.4345 172.111C92.0353 171.188 91.4552 170.354 90.7286 169.659C90.0019 168.964 89.1434 168.421 88.2036 168.064C87.2639 167.706 86.262 167.54 85.257 167.575C84.2521 167.54 83.2502 167.706 82.3104 168.064C81.3707 168.421 80.5121 168.964 79.7855 169.659C79.0588 170.354 78.4787 171.188 78.0795 172.111C77.6803 173.033 77.47 174.027 77.461 175.033C77.4686 176.039 77.6779 177.034 78.0765 177.958C78.4752 178.882 79.055 179.717 79.7818 180.413C80.5086 181.109 81.3676 181.652 82.3081 182.011C83.2485 182.369 84.2512 182.536 85.257 182.5V182.5Z" fill="white"/>
<g filter="url(#filter1_d_195_238)">
<path d="M248.514 272.193H941.836C948.646 272.193 955.177 274.899 959.993 279.714C964.809 284.53 967.514 291.062 967.514 297.872V426.265C967.514 433.075 964.809 439.607 959.993 444.422C955.177 449.238 948.646 451.943 941.836 451.943H248.514C241.704 451.943 235.172 449.238 230.357 444.422C225.541 439.607 222.836 433.075 222.836 426.265V297.872C222.836 291.062 225.541 284.53 230.357 279.714C235.172 274.899 241.704 272.193 248.514 272.193V272.193Z" fill="white"/>
</g>
<path d="M577.196 313.277H443.667C435.158 313.277 428.26 320.175 428.26 328.684C428.26 337.194 435.158 344.092 443.667 344.092H577.196C585.705 344.092 592.603 337.194 592.603 328.684C592.603 320.175 585.705 313.277 577.196 313.277Z" fill="#D0D5DD"/>
<path d="M669.638 380.041H443.667C435.158 380.041 428.26 386.939 428.26 395.448C428.26 403.957 435.158 410.855 443.667 410.855H669.638C678.148 410.855 685.046 403.957 685.046 395.448C685.046 386.939 678.148 380.041 669.638 380.041Z" fill="#EAECF0"/>
<path d="M361.5 287.605H263.921C249.739 287.605 238.243 299.102 238.243 313.284V410.862C238.243 425.044 249.739 436.541 263.921 436.541H361.5C375.682 436.541 387.178 425.044 387.178 410.862V313.284C387.178 299.102 375.682 287.605 361.5 287.605Z" fill="#98A2B3"/>
<path d="M301.008 378.92H311.279L311.392 374.966C311.392 369.768 314.669 368.412 319.301 366.944C323.948 365.622 328.038 362.823 330.953 358.97C333.868 355.118 335.45 350.421 335.458 345.589C335.56 342.64 335.048 339.701 333.956 336.959C332.863 334.218 331.213 331.733 329.11 329.662C327.007 327.591 324.497 325.979 321.739 324.928C318.981 323.877 316.035 323.41 313.087 323.557C309.972 323.489 306.875 324.055 303.985 325.22C301.095 326.384 298.472 328.124 296.274 330.333C294.076 332.542 292.351 335.175 291.201 338.071C290.051 340.967 289.502 344.067 289.586 347.181H300.207C300.166 345.462 300.47 343.751 301.099 342.15C301.728 340.549 302.671 339.089 303.871 337.857C305.072 336.625 306.506 335.645 308.091 334.974C309.675 334.304 311.377 333.956 313.097 333.952C314.649 333.862 316.201 334.107 317.65 334.67C319.098 335.234 320.408 336.103 321.49 337.217C322.573 338.332 323.403 339.667 323.924 341.131C324.445 342.595 324.644 344.154 324.509 345.702C324.441 348.208 323.569 350.625 322.023 352.599C320.477 354.572 318.339 355.996 315.922 356.662L312.193 358.141C308.543 359.021 305.356 361.239 303.264 364.357C301.171 367.475 300.326 371.264 300.895 374.976L301.008 378.92ZM306.092 403.335C307.098 403.371 308.101 403.205 309.041 402.846C309.982 402.488 310.841 401.944 311.567 401.248C312.294 400.552 312.874 399.717 313.273 398.793C313.671 397.869 313.881 396.874 313.888 395.868C313.879 394.862 313.669 393.869 313.27 392.946C312.871 392.023 312.29 391.189 311.564 390.494C310.837 389.799 309.979 389.257 309.039 388.899C308.099 388.541 307.097 388.375 306.092 388.411C305.087 388.375 304.085 388.541 303.146 388.899C302.206 389.257 301.347 389.799 300.621 390.494C299.894 391.189 299.314 392.023 298.915 392.946C298.515 393.869 298.305 394.862 298.296 395.868C298.304 396.874 298.513 397.869 298.912 398.793C299.31 399.717 299.89 400.552 300.617 401.248C301.344 401.944 302.203 402.488 303.143 402.846C304.084 403.205 305.086 403.371 306.092 403.335V403.335Z" fill="white"/>
<g filter="url(#filter2_d_195_238)">
<path d="M27.6786 493.028H721C727.81 493.028 734.342 495.734 739.157 500.549C743.973 505.365 746.678 511.897 746.678 518.707V647.1C746.678 653.91 743.973 660.442 739.157 665.257C734.342 670.073 727.81 672.778 721 672.778H27.6786C20.8682 672.778 14.3367 670.073 9.52108 665.257C4.70541 660.442 2 653.91 2 647.1L2 518.707C2 511.897 4.70541 505.365 9.52108 500.549C14.3367 495.734 20.8682 493.028 27.6786 493.028V493.028Z" fill="white"/>
</g>
<path d="M356.36 534.115H222.831C214.322 534.115 207.424 541.013 207.424 549.522C207.424 558.032 214.322 564.93 222.831 564.93H356.36C364.869 564.93 371.767 558.032 371.767 549.522C371.767 541.013 364.869 534.115 356.36 534.115Z" fill="#D0D5DD"/>
<path d="M448.803 600.878H222.831C214.322 600.878 207.424 607.776 207.424 616.286C207.424 624.795 214.322 631.693 222.831 631.693H448.803C457.312 631.693 464.21 624.795 464.21 616.286C464.21 607.776 457.312 600.878 448.803 600.878Z" fill="#EAECF0"/>
<path d="M140.665 508.44H43.0863C28.9044 508.44 17.4077 519.937 17.4077 534.119V631.698C17.4077 645.879 28.9044 657.376 43.0863 657.376H140.665C154.847 657.376 166.343 645.879 166.343 631.698V534.119C166.343 519.937 154.847 508.44 140.665 508.44Z" fill="#98A2B3"/>
<path d="M80.1727 599.756H90.4441L90.5571 595.801C90.5571 590.604 93.8337 589.248 98.4661 587.779C103.113 586.457 107.203 583.658 110.118 579.806C113.033 575.953 114.614 571.256 114.623 566.425C114.725 563.475 114.213 560.536 113.12 557.795C112.028 555.053 110.378 552.568 108.275 550.497C106.172 548.426 103.662 546.814 100.904 545.763C98.1458 544.713 95.1997 544.246 92.2519 544.393C89.1366 544.325 86.04 544.89 83.1499 546.055C80.2598 547.22 77.6364 548.96 75.4388 551.169C73.2412 553.378 71.5153 556.01 70.3657 558.906C69.216 561.803 68.6666 564.902 68.7508 568.017H79.3715C79.3312 566.297 79.6345 564.586 80.2638 562.985C80.8931 561.384 81.8356 559.925 83.0362 558.693C84.2368 557.461 85.6712 556.48 87.2554 555.81C88.8397 555.139 90.5418 554.792 92.2621 554.787C93.8135 554.697 95.3661 554.942 96.8143 555.506C98.2625 556.069 99.5725 556.938 100.655 558.053C101.738 559.168 102.568 560.502 103.089 561.967C103.609 563.431 103.809 564.99 103.674 566.538C103.605 569.043 102.734 571.461 101.188 573.434C99.6421 575.407 97.5033 576.832 95.0868 577.497L91.3582 578.976C87.7078 579.856 84.5208 582.074 82.4284 585.192C80.3359 588.31 79.4905 592.1 80.0597 595.811L80.1727 599.756ZM85.257 624.171C86.2628 624.207 87.2656 624.04 88.206 623.682C89.1464 623.323 90.0054 622.78 90.7322 622.084C91.459 621.388 92.0389 620.553 92.4375 619.629C92.8361 618.705 93.0454 617.71 93.053 616.703C93.0441 615.698 92.8338 614.704 92.4345 613.781C92.0353 612.859 91.4552 612.025 90.7286 611.33C90.0019 610.635 89.1434 610.092 88.2036 609.734C87.2639 609.377 86.262 609.211 85.257 609.246C84.2521 609.211 83.2502 609.377 82.3104 609.734C81.3707 610.092 80.5121 610.635 79.7855 611.33C79.0588 612.025 78.4787 612.859 78.0795 613.781C77.6803 614.704 77.47 615.698 77.461 616.703C77.4686 617.71 77.6779 618.705 78.0765 619.629C78.4752 620.553 79.055 621.388 79.7818 622.084C80.5086 622.78 81.3676 623.323 82.3081 623.682C83.2485 624.04 84.2512 624.207 85.257 624.171V624.171Z" fill="white"/>
<defs>
<filter id="filter0_d_195_238" x="0" y="49.3582" width="754.678" height="189.75" filterUnits="userSpaceOnUse" color-interpolation-filters="sRGB">
<feFlood flood-opacity="0" result="BackgroundImageFix"/>
<feColorMatrix in="SourceAlpha" type="matrix" values="0 0 0 0 0 0 0 0 0 0 0 0 0 0 0 0 0 0 127 0" result="hardAlpha"/>
<feOffset dx="3" dy="3"/>
<feGaussianBlur stdDeviation="2.5"/>
<feColorMatrix type="matrix" values="0 0 0 0 0.230539 0 0 0 0 0.370572 0 0 0 0 0.482993 0 0 0 0.1 0"/>
<feBlend mode="normal" in2="BackgroundImageFix" result="effect1_dropShadow_195_238"/>
<feBlend mode="normal" in="SourceGraphic" in2="effect1_dropShadow_195_238" result="shape"/>
</filter>
<filter id="filter1_d_195_238" x="220.836" y="270.193" width="754.678" height="189.75" filterUnits="userSpaceOnUse" color-interpolation-filters="sRGB">
<feFlood flood-opacity="0" result="BackgroundImageFix"/>
<feColorMatrix in="SourceAlpha" type="matrix" values="0 0 0 0 0 0 0 0 0 0 0 0 0 0 0 0 0 0 127 0" result="hardAlpha"/>
<feOffset dx="3" dy="3"/>
<feGaussianBlur stdDeviation="2.5"/>
<feColorMatrix type="matrix" values="0 0 0 0 0.230539 0 0 0 0 0.370572 0 0 0 0 0.482993 0 0 0 0.1 0"/>
<feBlend mode="normal" in2="BackgroundImageFix" result="effect1_dropShadow_195_238"/>
<feBlend mode="normal" in="SourceGraphic" in2="effect1_dropShadow_195_238" result="shape"/>
</filter>
<filter id="filter2_d_195_238" x="0" y="491.028" width="754.678" height="189.75" filterUnits="userSpaceOnUse" color-interpolation-filters="sRGB">
<feFlood flood-opacity="0" result="BackgroundImageFix"/>
<feColorMatrix in="SourceAlpha" type="matrix" values="0 0 0 0 0 0 0 0 0 0 0 0 0 0 0 0 0 0 127 0" result="hardAlpha"/>
<feOffset dx="3" dy="3"/>
<feGaussianBlur stdDeviation="2.5"/>
<feColorMatrix type="matrix" values="0 0 0 0 0.230539 0 0 0 0 0.370572 0 0 0 0 0.482993 0 0 0 0.1 0"/>
<feBlend mode="normal" in2="BackgroundImageFix" result="effect1_dropShadow_195_238"/>
<feBlend mode="normal" in="SourceGraphic" in2="effect1_dropShadow_195_238" result="shape"/>
</filter>
</defs>
</svg>
